<?xml version="1.0" encoding="UTF-8" standalone="no"?>
<!DOCTYPE svg PUBLIC "-//W3C//DTD SVG 1.1//EN" "http://www.w3.org/Graphics/SVG/1.1/DTD/svg11.dtd">
<svg width="100%" height="100%" viewBox="0 0 495 441" version="1.1" xmlns="http://www.w3.org/2000/svg" xmlns:xlink="http://www.w3.org/1999/xlink" xml:space="preserve" xmlns:serif="http://www.serif.com/" style="fill-rule:evenodd;clip-rule:evenodd;stroke-linejoin:round;stroke-miterlimit:2;">
    <g id="Livello-1" serif:id="Livello 1">
        <g transform="matrix(1,0,0,1,0,-38.418)">
            <path d="M467.898,239.369L468.871,239.369C469.942,239.369 470.916,239.077 470.916,238.152C470.916,237.374 470.429,236.838 469.018,236.838C468.483,236.838 468.141,236.887 467.898,236.935L467.898,239.369ZM467.898,243.797L466.536,243.797L466.536,235.963C467.266,235.817 468.093,235.718 469.115,235.718C470.429,235.718 471.062,235.963 471.596,236.351C472.034,236.644 472.375,237.277 472.375,238.006C472.375,238.979 471.646,239.563 470.817,239.856L470.817,239.953C471.549,240.195 471.888,240.828 472.131,241.851C472.375,243.019 472.521,243.504 472.715,243.797L471.304,243.797C471.062,243.504 470.866,242.823 470.672,241.754C470.478,240.877 469.942,240.488 468.822,240.488L467.898,240.488L467.898,243.797ZM469.212,233.529C465.855,233.529 463.276,236.303 463.276,239.66C463.276,243.116 465.855,245.841 469.309,245.841C472.667,245.889 475.197,243.116 475.197,239.708C475.197,236.303 472.667,233.529 469.261,233.529L469.212,233.529ZM469.309,232.215C473.495,232.215 476.802,235.476 476.802,239.66C476.802,243.894 473.495,247.203 469.261,247.203C465.077,247.203 461.719,243.894 461.719,239.66C461.719,235.476 465.077,232.215 469.261,232.215L469.309,232.215Z" style="fill:white;fill-rule:nonzero;"/>
        </g>
        <g opacity="0.4">
            <g transform="matrix(1,0,0,1,0,-190.652)">
                <path d="M87.728,379.853C102.108,309.964 164.108,257.247 238.19,257.247C312.271,257.247 374.273,309.964 388.651,379.853L394.202,379.853C379.738,306.94 315.286,251.799 238.19,251.799C161.093,251.799 96.641,306.94 82.178,379.853L87.728,379.853Z" style="fill:white;fill-rule:nonzero;"/>
            </g>
            <g transform="matrix(1,0,0,1,0,189.457)">
                <path d="M388.651,61.745C374.273,131.634 312.271,184.35 238.189,184.35C164.108,184.35 102.107,131.634 87.728,61.745L82.177,61.745C96.642,134.657 161.092,189.798 238.189,189.798C315.286,189.798 379.738,134.657 394.201,61.745L388.651,61.745Z" style="fill:white;fill-rule:nonzero;"/>
            </g>
        </g>
        <g transform="matrix(1,0,0,1,0,-0.622)">
            <path d="M293.12,139.424C289.936,139.009 281.037,138.56 277.838,138.453C273.965,138.327 270.093,138.336 266.226,138.662C264.015,138.846 261.807,139.158 259.607,139.498C257.91,139.759 256.272,140.361 254.637,140.973C252.358,141.826 250.143,142.863 247.979,144.064C243.063,146.794 238.561,150.295 234.521,154.64C232.322,157.006 230.453,159.731 228.729,162.603C226.586,166.173 224.723,169.947 223.132,173.911C222.283,176.026 221.409,178.148 220.965,180.455C220.713,181.764 220.525,183.106 220.44,184.445C220.288,186.842 220.163,189.251 220.164,191.654C220.166,194.329 220.318,197.005 220.413,199.68C220.498,202.036 220.603,204.391 220.684,206.748C220.733,208.123 220.777,209.498 220.774,210.873C220.772,211.706 220.719,212.545 220.614,213.369C220.357,215.405 220.108,217.447 219.762,219.462C219.303,222.143 218.464,224.669 217.432,227.105C216.279,229.822 214.87,232.35 213.503,234.908C211.726,238.23 209.9,241.515 208.384,245.027C207.858,246.247 207.368,247.489 207.1,248.836C207.02,249.238 206.948,249.652 206.926,250.063C206.771,253.001 207.004,255.854 208.198,258.497C208.963,260.193 209.997,261.576 211.351,262.621C212.383,263.416 213.376,264.277 214.089,265.518C214.807,266.772 215.26,268.155 215.42,269.663C215.556,270.951 215.719,272.245 215.731,273.54C215.744,274.736 215.594,275.937 215.478,277.132C215.357,278.374 215.193,279.609 215.045,280.848C214.908,282.013 214.764,283.176 214.632,284.343C214.405,286.357 214.414,288.353 214.975,290.303C215.36,291.645 215.706,293.007 216.138,294.327C216.658,295.915 217.427,297.336 218.389,298.59C219.104,299.523 220.003,300.157 220.954,300.679C222.144,301.332 223.39,301.784 224.671,302.079C226.093,302.405 227.534,302.569 228.982,302.564C233.08,302.553 237.177,302.564 241.275,302.491C244.084,302.439 246.893,302.267 249.703,302.134C252.186,302.015 254.668,301.874 257.152,301.742C258.862,301.65 260.572,301.556 262.282,301.471C262.365,301.467 262.449,301.548 262.564,301.604C262.355,302.037 262.009,301.996 261.735,302.058C260.077,302.436 258.414,302.787 256.749,303.134C254.825,303.534 252.897,303.928 250.969,304.31C248.821,304.736 246.671,305.153 244.521,305.56C242.529,305.936 240.539,306.318 238.542,306.65C236.97,306.911 235.39,307.121 233.81,307.314C231.867,307.552 229.922,307.823 227.972,307.939C226.428,308.031 224.867,308.025 223.329,307.859C221.532,307.664 219.728,307.422 217.972,306.828C216.367,306.286 215.019,305.314 213.821,303.891C211.834,301.528 210.687,298.67 210.034,295.463C209.568,293.175 209.205,290.864 208.929,288.532C208.595,285.707 208.362,282.874 208.475,280.018C208.533,278.521 208.672,277.03 208.73,275.533C208.782,274.235 208.805,272.931 208.777,271.631C208.75,270.414 208.195,269.453 207.57,268.563C206.707,267.334 205.65,266.371 204.573,265.441C203.101,264.168 201.632,262.89 200.144,261.647C198.952,260.649 198.328,259.244 198,257.591C197.661,255.873 197.803,254.171 198.096,252.476C198.71,248.909 199.947,245.636 201.375,242.455C203.046,238.732 205.056,235.273 207.065,231.814C208.339,229.623 209.615,227.433 210.662,225.066C211.345,223.524 211.931,221.935 212.25,220.223C212.524,218.756 212.679,217.276 212.524,215.766C212.451,215.06 212.424,214.346 212.383,213.635C212.289,211.971 212.191,210.304 212.109,208.638C212.009,206.604 211.926,204.567 211.838,202.531C211.737,200.176 211.58,197.822 211.555,195.466C211.522,192.371 211.552,189.272 211.636,186.18C211.693,184.122 211.84,182.061 212.044,180.016C212.391,176.502 213.293,173.179 214.615,170.021C216.788,164.824 219.66,160.229 222.939,155.987C225.473,152.708 228.227,149.726 231.231,147.085C233.603,144.997 236.12,143.195 238.733,141.581C240.673,140.381 242.654,139.29 244.701,138.392C246.341,137.672 248.016,137.066 249.682,136.438C251.433,135.78 253.221,135.296 255.03,134.943C256.677,134.62 258.329,134.319 259.989,134.114C261.709,133.901 263.439,133.748 265.166,133.687C267.836,133.591 270.508,133.677 273.173,133.909C274.981,134.067 276.796,134.156 278.596,134.404C280.719,134.695 282.845,135.018 284.939,135.519C284.939,135.519 291.525,137.255 293.448,138.016C294.767,138.538 296.707,139.786 296.502,139.786C295.854,139.786 293.12,139.424 293.12,139.424" style="fill:white;fill-rule:nonzero;"/>
        </g>
        <g transform="matrix(1,0,0,1,0,-5.473)">
            <path d="M17.479,207.366L22.523,207.366L44.851,226.066C46.143,227.112 47.374,228.218 48.481,229.51C48.297,226.866 48.174,225.02 48.174,224.037L48.174,207.366L54.817,207.366L54.817,239.107L49.773,239.107L26.46,219.485C25.537,218.684 24.676,217.884 23.815,216.901C24.061,219.361 24.123,221.022 24.123,221.945L24.123,239.107L17.479,239.107L17.479,207.366Z" style="fill:white;fill-rule:nonzero;"/>
        </g>
        <g transform="matrix(1,0,0,1,0,0.247)">
            <path d="M74.372,228.405L95.348,228.405L95.348,212.165L74.372,212.165L74.372,228.405ZM74.803,207.367L94.917,207.367C100.024,207.367 101.684,208.537 101.684,213.519L101.684,227.237C101.684,232.157 100.024,233.386 94.917,233.386L74.803,233.386C69.635,233.386 68.037,232.157 68.037,227.237L68.037,213.519C68.037,208.537 69.698,207.367 74.803,207.367" style="fill:white;fill-rule:nonzero;"/>
        </g>
        <g transform="matrix(1,0,0,1,0,0.248)">
            <path d="M109.061,207.366L116.258,207.366L127.27,226.25L137.664,207.366L144.246,207.366L129.176,233.386L124.808,233.386L109.061,207.366Z" style="fill:white;fill-rule:nonzero;"/>
        </g>
        <g transform="matrix(1,0,0,1,0,0.247)">
            <path d="M169.517,222.929L163.428,212.104L157.584,222.929L169.517,222.929ZM160.722,207.367L166.812,207.367L182.496,233.386L175.36,233.386L172.101,227.666L154.878,227.666L151.617,233.386L145.282,233.386L160.722,207.367Z" style="fill:white;fill-rule:nonzero;"/>
        </g>
        <g transform="matrix(1,0,0,1,0,-5.473)">
            <path d="M241.908,207.366L247.874,207.366L262.823,226.558L277.463,207.366L283.368,207.366L283.368,239.107L276.54,239.107L276.54,219.485C276.54,218.868 276.601,217.762 276.786,216.101C276.11,217.516 275.494,218.684 274.94,219.422L263.007,235.294L261.531,235.294L249.597,219.361C248.859,218.377 248.183,217.331 247.69,216.101C247.813,217.393 247.874,218.439 247.874,219.485L247.874,239.107L241.908,239.107L241.908,207.366Z" style="fill:white;fill-rule:nonzero;"/>
        </g>
        <g transform="matrix(1,0,0,1,0,0.248)">
            <path d="M296.587,207.366L324.514,207.366L324.514,211.979L302.984,211.979L302.984,217.639L315.533,217.639L315.533,222.13L302.984,222.13L302.984,228.527L324.821,228.527L324.821,233.386L296.587,233.386L296.587,207.366Z" style="fill:white;fill-rule:nonzero;"/>
        </g>
        <g transform="matrix(1,0,0,1,0,0.248)">
            <path d="M333.983,207.366L338.35,207.366L360.433,224.651L360.433,207.366L366.153,207.366L366.153,233.386L361.787,233.386L339.766,215.855L339.766,233.386L333.983,233.386L333.983,207.366Z" style="fill:white;fill-rule:nonzero;"/>
        </g>
        <g transform="matrix(1,0,0,1,0,0.248)">
            <path d="M393.276,233.386L386.94,233.386L386.94,212.041L374.392,212.041L374.392,207.366L405.886,207.366L405.886,212.041L393.276,212.041L393.276,233.386Z" style="fill:white;fill-rule:nonzero;"/>
        </g>
        <g transform="matrix(1,0,0,1,0,0.2465)">
            <rect x="414.063" y="207.367" width="6.336" height="26.019" style="fill:white;"/>
        </g>
        <g transform="matrix(1,0,0,1,0,0.247)">
            <path d="M438.113,212.042L438.113,217.515L455.028,217.515C460.195,217.515 461.794,218.748 461.794,223.668L461.794,227.236C461.794,232.094 460.195,233.387 455.028,233.387L438.113,233.387C432.945,233.387 431.285,232.094 431.285,227.236L431.285,226.497L436.945,225.451L436.945,228.528L456.074,228.528L456.074,222.561L439.22,222.561C434.113,222.561 432.392,221.33 432.392,216.41L432.392,213.519C432.392,208.597 434.113,207.366 439.22,207.366L454.66,207.366C459.458,207.366 461.487,208.473 461.487,213.026L461.487,213.641L456.013,214.811L456.013,212.042L438.113,212.042Z" style="fill:white;fill-rule:nonzero;"/>
        </g>
        <g transform="matrix(1,0,0,1,0,189.099)">
            <path d="M148.31,118.2L155.891,126.098L154.726,127.216L148.565,120.799L146.548,122.733L150.26,126.599L149.095,127.718L145.383,123.853L143.035,126.108L149.267,132.599L148.119,133.701L140.468,125.727L148.31,118.2Z" style="fill:white;fill-rule:nonzero;"/>
        </g>
        <g transform="matrix(1,0,0,1,0,222.904)">
            <path d="M168.05,99.525L169.209,100.28L172.672,113.083C172.835,113.678 172.957,114.429 173.031,115.303C173.531,114.16 174.118,113.26 174.634,112.466L178.592,106.39L180.287,107.494L173.073,118.571L172.043,117.901L168.538,104.642C168.411,104.132 168.192,103.532 168.233,102.671C167.81,103.557 167.314,104.365 166.781,105.181L162.533,111.706L160.836,110.604L168.05,99.525Z" style="fill:white;fill-rule:nonzero;"/>
        </g>
        <g transform="matrix(1,0,0,1,0,243.461)">
            <path d="M184.155,91.54L194.116,96.066L193.447,97.536L185.354,93.858L184.199,96.401L189.073,98.616L188.406,100.085L183.53,97.87L182.185,100.831L190.371,104.552L189.715,105.999L179.662,101.431L184.155,91.54Z" style="fill:white;fill-rule:nonzero;"/>
        </g>
        <g transform="matrix(1,0,0,1,0,254.482)">
            <path d="M196.992,95.82L204.6,98.117L207.268,89.282L209.255,89.884L206.853,97.834C206.283,99.723 205.574,100.125 203.561,99.517L197.107,97.568C195.145,96.976 194.719,96.259 195.296,94.344L197.697,86.393L199.661,86.985L196.992,95.82Z" style="fill:white;fill-rule:nonzero;"/>
        </g>
        <g transform="matrix(1,0,0,1,0,262.437)">
            <path d="M215.777,84.858L215.227,88.326L220.95,89.233C221.835,89.372 222.125,89.184 222.261,88.325L222.466,87.033C222.606,86.147 222.258,85.883 221.498,85.764L215.777,84.858ZM213.999,82.968L222.634,84.335C224.203,84.582 224.795,85.273 224.558,86.767L224.178,89.172C223.944,90.642 223.169,91.115 221.599,90.866L220.182,90.642L224.251,95.595L221.542,95.166L217.928,90.287L214.99,89.82L214.325,94.025L212.3,93.704L213.999,82.968Z" style="fill:white;fill-rule:nonzero;"/>
        </g>
        <g transform="matrix(1,0,0,1,0,265.27)">
            <path d="M240.089,91.745L240.241,84.138L231.173,83.958L231.022,91.567L240.089,91.745ZM231.82,82.358L239.657,82.513C241.732,82.553 242.31,83.18 242.271,85.151L242.158,90.864C242.117,92.864 241.491,93.413 239.442,93.374L231.605,93.217C229.53,93.175 228.951,92.627 228.991,90.602L229.104,84.891C229.143,82.92 229.745,82.317 231.82,82.358" style="fill:white;fill-rule:nonzero;"/>
        </g>
        <g transform="matrix(1,0,0,1,0,263.576)">
            <path d="M249.11,85.339L249.445,88.137L256.365,87.307C258.425,87.059 259.058,87.603 259.29,89.537L259.445,90.833C259.683,92.817 259.165,93.447 257.13,93.691L250.568,94.479C248.507,94.726 247.854,94.236 247.616,92.252L247.58,91.947L249.392,91.342L249.583,92.946L257.724,91.97L257.361,88.942L250.416,89.775C248.382,90.019 247.729,89.529 247.491,87.545L247.368,86.527C247.127,84.518 247.671,83.885 249.681,83.644L255.683,82.925C257.566,82.698 258.391,83.116 258.613,84.974L258.643,85.227L256.836,85.857L256.665,84.432L249.11,85.339Z" style="fill:white;fill-rule:nonzero;"/>
        </g>
        <g transform="matrix(1,0,0,1,0,257.334)">
            <path d="M265.12,89.07L267.019,96.439L274.363,94.548L273.717,92.041L275.798,91.901L276.117,93.141C276.617,95.079 276.161,95.775 274.177,96.287L267.998,97.88C265.964,98.405 265.303,97.993 264.803,96.057L263.378,90.525C262.879,88.589 263.278,87.877 265.287,87.36L271.466,85.768C273.427,85.262 274.186,85.648 274.692,87.609L274.947,88.6L273.046,89.435L272.464,87.178L265.12,89.07Z" style="fill:white;fill-rule:nonzero;"/>
        </g>
        <g transform="matrix(0.340174,0.940362,0.940362,-0.340174,95.7054,114.071)">
            <rect x="275.395" y="94.241" width="10.844" height="2.051" style="fill:white;"/>
        </g>
        <g transform="matrix(1,0,0,1,0,241.343)">
            <path d="M284.479,97.23L294.389,92.587L295.074,94.049L287.02,97.822L288.206,100.352L293.057,98.08L293.741,99.543L288.89,101.815L290.271,104.762L298.417,100.946L299.092,102.385L289.089,107.07L284.479,97.23Z" style="fill:white;fill-rule:nonzero;"/>
        </g>
        <g transform="matrix(1,0,0,1,0,225.522)">
            <path d="M301.572,109.015L305.223,114.681L303.628,115.708L297.742,106.572L299.058,105.727L309.604,107.377C310.271,107.466 310.879,107.654 311.508,107.919C311.026,107.407 310.62,106.875 310.26,106.314L306.706,100.797L308.301,99.77L314.186,108.906L313.002,109.67L302.271,108.016C301.626,107.914 301.009,107.761 300.389,107.46C300.822,107.944 301.225,108.477 301.572,109.015" style="fill:white;fill-rule:nonzero;"/>
        </g>
        <g transform="matrix(1,0,0,1,0,205.281)">
            <path d="M318.123,124.973L318.948,113.352L313.294,118.211L312.241,116.987L320.365,110.007L320.932,110.668L320.099,122.397L326.377,117.004L327.445,118.249L318.757,125.712L318.123,124.973Z" style="fill:white;fill-rule:nonzero;"/>
        </g>
        <g transform="matrix(1,0,0,1,0,181.873)">
            <path d="M323.828,129.981L331.166,121.858L332.366,122.94L326.401,129.542L328.476,131.417L332.067,127.439L333.266,128.521L329.674,132.499L332.09,134.68L338.122,128.003L339.303,129.068L331.895,137.269L323.828,129.981Z" style="fill:white;fill-rule:nonzero;"/>
        </g>
        <g transform="matrix(1,0,0,1,0,-136.592)">
            <path d="M117.054,289.988L125.062,295.255L130.102,287.589L127.339,285.774L128.935,284.185L130.242,285.045C132.297,286.396 132.474,287.339 131.165,289.331L127.096,295.518C125.786,297.51 124.815,297.729 122.781,296.391L116.957,292.563C114.923,291.225 114.74,290.245 116.049,288.253L120.117,282.068C121.426,280.074 122.363,279.863 124.417,281.214L125.466,281.905L124.599,283.972L122.093,282.323L117.054,289.988Z" style="fill:white;fill-rule:nonzero;"/>
        </g>
        <g transform="matrix(1,0,0,1,0,-162.983)">
            <path d="M127.382,302.617L134.496,294.302L135.722,295.351L129.943,302.11L132.064,303.924L135.545,299.855L136.773,300.904L133.292,304.975L135.765,307.089L141.612,300.254L142.819,301.287L135.639,309.681L127.382,302.617Z" style="fill:white;fill-rule:nonzero;"/>
        </g>
        <g transform="matrix(1,0,0,1,0,-185.759)">
            <path d="M141.996,315.382L146.557,320.345L145.16,321.629L137.807,313.628L138.958,312.57L149.63,312.402C150.303,312.377 150.934,312.457 151.598,312.614C151.036,312.189 150.547,311.735 150.096,311.243L145.657,306.414L147.052,305.13L154.406,313.13L153.367,314.084L142.514,314.28C141.861,314.289 141.227,314.244 140.564,314.053C141.073,314.455 141.562,314.911 141.996,315.382" style="fill:white;fill-rule:nonzero;"/>
        </g>
        <g transform="matrix(1,0,0,1,0,-208.64)">
            <path d="M162.268,330.124L160.609,331.329L155.174,323.847L151.029,326.858L150.08,325.552L160.05,318.311L160.998,319.615L156.832,322.642L162.268,330.124Z" style="fill:white;fill-rule:nonzero;"/>
        </g>
        <g transform="matrix(1,0,0,1,0,-221.481)">
            <path d="M165.878,329.452L167.622,332.498L172.646,329.621C173.424,329.175 173.532,328.847 173.098,328.091L172.45,326.957C172.004,326.181 171.569,326.193 170.901,326.575L165.878,329.452ZM163.31,329.092L170.891,324.752C172.269,323.962 173.163,324.129 173.914,325.441L175.123,327.554C175.861,328.843 175.554,329.698 174.176,330.487L172.929,331.199L179.201,332.51L176.822,333.871L170.952,332.333L168.372,333.81L170.486,337.499L168.708,338.519L163.31,329.092Z" style="fill:white;fill-rule:nonzero;"/>
        </g>
        <g transform="matrix(1,0,0,1,0,-236.575)">
            <path d="M191.424,340.541L188.491,333.515L180.116,337.01L183.049,344.037L191.424,340.541ZM180.062,335.283L187.301,332.261C189.218,331.462 189.999,331.802 190.76,333.623L192.962,338.9C193.732,340.745 193.381,341.503 191.488,342.292L184.249,345.314C182.332,346.113 181.58,345.844 180.801,343.976L178.599,338.7C177.838,336.877 178.146,336.083 180.062,335.283" style="fill:white;fill-rule:nonzero;"/>
        </g>
        <g transform="matrix(1,0,0,1,0,-252.044)">
            <path d="M208.056,343.174L209.479,350.653L213.381,349.911C216.606,349.298 218.024,348.114 217.473,345.219C216.942,342.424 215.157,341.823 211.959,342.432L208.056,343.174ZM216.324,340.819C217.932,341.451 219.128,342.947 219.493,344.86C220.182,348.487 218.322,350.64 213.915,351.48L207.771,352.648L205.74,341.97L211.884,340.802C213.773,340.443 215.251,340.396 216.324,340.819" style="fill:white;fill-rule:nonzero;"/>
        </g>
        <g transform="matrix(0.092349,0.995727,0.995727,-0.092349,-142.495,-99.9698)">
            <rect x="220.065" y="347.622" width="10.839" height="2.049" style="fill:white;"/>
        </g>
        <g transform="matrix(1,0,0,1,0,-259.823)">
            <path d="M244.881,345.61L244.546,350.21L252.111,350.76C253.082,350.83 253.561,350.608 253.643,349.484L253.776,347.644C253.856,346.546 253.442,346.233 252.445,346.161L244.881,345.61ZM242.808,343.738L253.439,344.51C255.356,344.65 256.172,345.43 256.039,347.27L255.826,350.207C255.691,352.047 254.77,352.7 252.854,352.561L244.421,351.949L244.047,357.085L241.85,356.925L242.808,343.738Z" style="fill:white;fill-rule:nonzero;"/>
        </g>
        <g transform="matrix(1,0,0,1,0,-251.791)">
            <path d="M263,341.87L262.43,344.632L269.259,346.04C271.293,346.461 271.72,347.177 271.326,349.086L271.063,350.365C270.659,352.324 269.967,352.756 267.959,352.343L261.481,351.005C259.448,350.586 258.985,349.916 259.389,347.957L259.45,347.654L261.36,347.658L261.035,349.238L269.068,350.896L269.685,347.91L262.831,346.496C260.823,346.079 260.358,345.409 260.764,343.45L260.97,342.446C261.381,340.462 262.096,340.035 264.08,340.445L270.004,341.668C271.863,342.05 272.511,342.708 272.134,344.54L272.082,344.792L270.167,344.815L270.457,343.409L263,341.87Z" style="fill:white;fill-rule:nonzero;"/>
        </g>
        <g transform="matrix(-0.286781,0.957996,0.957996,0.286781,27.6711,-266.68)">
            <rect x="271.844" y="342.514" width="10.844" height="2.05" style="fill:white;"/>
        </g>
        <g transform="matrix(1,0,0,1,0,-238.432)">
            <path d="M286.218,334.781L283.425,341.861L290.481,344.645L291.43,342.237L293.196,343.347L292.725,344.54C291.992,346.398 291.213,346.697 289.306,345.945L283.371,343.602C281.417,342.832 281.123,342.11 281.857,340.25L283.954,334.935C284.688,333.076 285.429,332.735 287.358,333.496L293.293,335.838C295.177,336.581 295.565,337.34 294.823,339.224L294.447,340.178L292.418,339.734L293.273,337.566L286.218,334.781Z" style="fill:white;fill-rule:nonzero;"/>
        </g>
        <g transform="matrix(1,0,0,1,0,-224.221)">
            <path d="M305.628,338.121L309.281,331.442L301.32,327.089L297.668,333.767L305.628,338.121ZM302.636,325.968L309.516,329.731C311.337,330.726 311.56,331.55 310.612,333.28L307.87,338.295C306.91,340.048 306.101,340.249 304.302,339.264L297.421,335.501C295.6,334.505 295.34,333.75 296.312,331.974L299.054,326.96C300.002,325.228 300.814,324.972 302.636,325.968" style="fill:white;fill-rule:nonzero;"/>
        </g>
        <g transform="matrix(1,0,0,1,0,-206.317)">
            <path d="M316.522,316.185L318.195,317.372L312.852,324.896L319.75,329.794L318.799,331.132L310.23,325.046L316.522,316.185Z" style="fill:white;fill-rule:nonzero;"/>
        </g>
        <g transform="matrix(1,0,0,1,0,-187.525)">
            <path d="M330.143,320.128L335.242,314.471L328.501,308.394L323.402,314.05L330.143,320.128ZM330.04,307.608L335.867,312.86C337.409,314.251 337.434,315.103 336.114,316.568L332.286,320.817C330.947,322.301 330.112,322.309 328.588,320.934L322.76,315.682C321.218,314.291 321.141,313.496 322.497,311.993L326.324,307.746C327.647,306.279 328.496,306.216 330.04,307.608" style="fill:white;fill-rule:nonzero;"/>
        </g>
        <g transform="matrix(1,0,0,1,0,-162.244)">
            <path d="M341.724,295.866L335.946,300.826L341.541,307.343L343.777,305.423L340.89,302.057L342.017,301.089L346.242,306.011L343.577,308.298C342.059,309.601 341.229,309.501 339.894,307.944L335.102,302.36C333.749,300.785 333.794,299.971 335.312,298.668L339.649,294.944C341.167,293.643 342.015,293.726 343.351,295.282L348.143,300.865C349.396,302.323 349.471,303.239 348.032,304.474C347.953,304.54 347.875,304.609 347.798,304.675L346.19,303.352L347.318,302.384L341.724,295.866Z" style="fill:white;fill-rule:nonzero;"/>
        </g>
        <g transform="matrix(-0.813596,0.58143,0.58143,0.813596,463.062,-291.824)">
            <rect x="343.583" y="291.16" width="10.837" height="2.048" style="fill:white;"/>
        </g>
        <g transform="matrix(1,0,0,1,0,-118.442)">
            <path d="M355.649,280.091L358.629,274.961L352.71,275.129L355.649,280.091ZM359.539,273.38L360.493,274.988L354.418,286.062L353.283,284.144L354.749,281.637L350.922,275.174L348.033,275.277L346.988,273.513L359.539,273.38Z" style="fill:white;fill-rule:nonzero;"/>
        </g>
    </g>
</svg>
